<svg width="32" height="29" viewBox="0 0 32 29" fill="none" xmlns="http://www.w3.org/2000/svg">
<path d="M16 3.91414C15.4255 3.30759 14.759 2.78727 14.0226 2.37134C13.0138 1.80155 11.8949 1.43955 10.7361 1.30695C9.57732 1.17436 8.4024 1.27386 7.2848 1.59955C6.16716 1.92526 5.12982 2.47049 4.23852 3.20246C3.34716 3.93448 2.62089 4.83771 2.10702 5.85643C1.59311 6.87525 1.30321 7.98674 1.25666 9.1208C1.21011 10.2549 1.408 11.3853 1.83709 12.4407C2.26614 13.4959 2.91662 14.4522 3.7459 15.2503L3.74596 15.2504L15.48 26.5405L16 27.0408L16.52 26.5405L28.254 15.2518L28.484 15.0305V15.0202C29.2042 14.2709 29.7743 13.3964 30.1629 12.4407C30.592 11.3853 30.7899 10.2549 30.7433 9.1208C30.6968 7.98674 30.4069 6.87525 29.893 5.85643C29.3791 4.83771 28.6528 3.93448 27.7615 3.20246C26.8702 2.47049 25.8328 1.92526 24.7152 1.59955C23.5976 1.27386 22.4227 1.17436 21.2639 1.30695C20.1051 1.43955 18.9862 1.80155 17.9774 2.37134L18.3462 3.02438L17.9773 2.37134C17.241 2.78727 16.5745 3.30759 16 3.91414Z" fill="#F7F7F7" stroke="#F6F6F6" stroke-width="1.5"/>
<path d="M5.30644 13.703C4.67515 13.0954 4.18617 12.3649 3.87228 11.5605C3.55839 10.7561 3.42685 9.8965 3.48647 9.0392C3.54609 8.18191 3.7955 7.34679 4.21797 6.58984C4.64044 5.83289 5.22622 5.17161 5.93601 4.65034C6.6458 4.12908 7.46321 3.75987 8.33343 3.56747C9.20364 3.37507 10.1065 3.36394 10.9816 3.53482C11.8566 3.70569 12.6836 4.05463 13.4071 4.55823C14.1305 5.06182 14.7337 5.70844 15.1762 6.45472H16.8238C17.2663 5.70844 17.8695 5.06182 18.5929 4.55823C19.3164 4.05463 20.1434 3.70569 21.0184 3.53482C21.8935 3.36394 22.7964 3.37507 23.6666 3.56747C24.5368 3.75987 25.3542 4.12908 26.064 4.65034C26.7738 5.17161 27.3596 5.83289 27.782 6.58984C28.2045 7.34679 28.4539 8.18191 28.5135 9.0392C28.5732 9.8965 28.4416 10.7561 28.1277 11.5605C27.8138 12.3649 27.3248 13.0954 26.6936 13.703L16 23.9961L5.30644 13.7044V13.703ZM27.734 14.7099C28.4888 13.9836 29.0792 13.1148 29.4681 12.1582C29.8571 11.2016 30.0361 10.1779 29.994 9.15156C29.9518 8.12518 29.6895 7.11828 29.2233 6.19421C28.7572 5.27013 28.0974 4.44886 27.2855 3.78205C26.4735 3.11525 25.527 2.61732 24.5054 2.3196C23.4837 2.02188 22.4092 1.9308 21.3492 2.05209C20.2892 2.17338 19.2668 2.50441 18.3462 3.02438C17.4256 3.54434 16.6268 4.24198 16 5.07342C15.3732 4.24198 14.5744 3.54434 13.6538 3.02438C12.7332 2.50441 11.7108 2.17338 10.6508 2.05209C9.59085 1.9308 8.51626 2.02188 7.49464 2.3196C6.47302 2.61732 5.52646 3.11525 4.71451 3.78205C3.90256 4.44886 3.24278 5.27013 2.77666 6.19421C2.31053 7.11828 2.04816 8.12518 2.00603 9.15156C1.9639 10.1779 2.14293 11.2016 2.53186 12.1582C2.92079 13.1148 3.5112 13.9836 4.26597 14.7099L16 26L27.734 14.7113V14.7099Z" fill="#00CCA9"/>
</svg>
