<svg width="19" height="18" viewBox="0 0 19 18" fill="none" xmlns="http://www.w3.org/2000/svg">
<path d="M2.24355 8.92389C1.8152 8.49353 1.4834 7.97616 1.27042 7.40647C1.05743 6.83678 0.968171 6.22793 1.00863 5.62076C1.04908 5.01358 1.21832 4.42211 1.50498 3.886C1.79165 3.34989 2.18911 2.88154 2.67074 2.51236C3.15236 2.14317 3.707 1.88168 4.29748 1.74541C4.88795 1.60915 5.50061 1.60126 6.09436 1.72229C6.68812 1.84331 7.24925 2.09044 7.74013 2.44711C8.23102 2.80378 8.6403 3.26175 8.94055 3.7903H10.0585C10.3588 3.26175 10.7681 2.80378 11.259 2.44711C11.7498 2.09044 12.311 1.84331 12.9047 1.72229C13.4985 1.60126 14.1111 1.60915 14.7016 1.74541C15.2921 1.88168 15.8467 2.14317 16.3284 2.51236C16.81 2.88154 17.2075 3.34989 17.4941 3.886C17.7808 4.42211 17.95 5.01358 17.9905 5.62076C18.0309 6.22793 17.9417 6.83678 17.7287 7.40647C17.5157 7.97616 17.1839 8.49353 16.7556 8.92389L9.49955 16.214L2.24355 8.92489V8.92389ZM17.4616 9.63703C17.9737 9.12259 18.3743 8.50727 18.6382 7.82978C18.9021 7.15228 19.0236 6.42727 18.995 5.70034C18.9664 4.9734 18.7884 4.26027 18.4721 3.60579C18.1558 2.95132 17.7081 2.36966 17.1572 1.89739C16.6063 1.42512 15.964 1.07247 15.2708 0.86161C14.5776 0.650749 13.8484 0.586242 13.1292 0.672145C12.4099 0.758048 11.7162 0.992504 11.0915 1.36077C10.4669 1.72903 9.92486 2.22313 9.49955 2.812C9.07423 2.22313 8.53221 1.72903 7.90756 1.36077C7.28291 0.992504 6.58916 0.758048 5.86992 0.672145C5.15069 0.586242 4.42154 0.650749 3.72833 0.86161C3.03512 1.07247 2.39284 1.42512 1.8419 1.89739C1.29096 2.36966 0.843274 2.95132 0.526992 3.60579C0.21071 4.26027 0.0326771 4.9734 0.00409076 5.70034C-0.0244956 6.42727 0.0969828 7.15228 0.360886 7.82978C0.62479 8.50727 1.02541 9.12259 1.53755 9.63703L9.49955 17.6332L17.4616 9.63803V9.63703Z" fill="#F7F7F7"/>
</svg>
