<svg width="23" height="22" viewBox="0 0 23 22" fill="none" xmlns="http://www.w3.org/2000/svg">
    <path d="M19.9918 11.4936L20.2115 11.2739V11.2608C20.6925 10.7257 21.0739 10.1078 21.3367 9.43613C21.6383 8.66526 21.7771 7.84032 21.7444 7.0132C21.7118 6.18607 21.5083 5.37465 21.1468 4.62997C20.7854 3.88528 20.2737 3.22345 19.6441 2.6861C19.0144 2.14874 18.2804 1.74748 17.4881 1.50755C16.6959 1.26763 15.8626 1.19423 15.0406 1.29198C14.2186 1.38972 13.4258 1.65649 12.7119 2.07551C12.2682 2.33595 11.8609 2.6517 11.4995 3.01428C11.1381 2.6517 10.7309 2.33595 10.2872 2.07551C9.57333 1.65649 8.78046 1.38972 7.95848 1.29198C7.1365 1.19423 6.30318 1.26763 5.51094 1.50755C4.7187 1.74748 3.98468 2.14874 3.35503 2.6861C2.72539 3.22345 2.21374 3.88528 1.85228 4.62997C1.49081 5.37465 1.28735 6.18607 1.25468 7.0132C1.22201 7.84032 1.36084 8.66526 1.66244 9.43614C1.96405 10.207 2.4219 10.9071 3.0072 11.4925L3.00725 11.4925L10.9692 19.4535L11.4995 19.9837L12.0298 19.4536L19.9918 11.4936Z" fill="#F7F7F7" stroke="#F6F6F6" stroke-width="1.5"/>
    <path d="M20.6382 9.16287C20.3743 9.83738 19.9737 10.45 19.4615 10.9622V10.9632L11.4995 18.9232L3.53755 10.9622C3.02541 10.45 2.62479 9.83738 2.36089 9.16287C2.09698 8.48836 1.9755 7.76653 2.00409 7.0428C2.03268 6.31906 2.21071 5.60907 2.52699 4.95747C2.84327 4.30587 3.29096 3.72677 3.8419 3.25658C4.39284 2.7864 5.03512 2.43529 5.72833 2.22536C6.42154 2.01543 7.15069 1.9512 7.86992 2.03673C8.58915 2.12225 9.28291 2.35568 9.90756 2.72232C10.5322 3.08896 11.0742 3.58089 11.4995 4.16717C11.9249 3.58089 12.4669 3.08896 13.0915 2.72232C13.7162 2.35568 14.4099 2.12225 15.1292 2.03673C15.8484 1.9512 16.5776 2.01543 17.2708 2.22536C17.964 2.43529 18.6062 2.7864 19.1572 3.25658C19.7081 3.72677 20.1558 4.30587 20.4721 4.95747C20.7884 5.60907 20.9664 6.31906 20.995 7.0428C21.0236 7.76653 20.9021 8.48836 20.6382 9.16287Z" fill="#00CCA9"/>
</svg>
