<svg width="54" height="55" viewBox="0 0 54 55" fill="none" xmlns="http://www.w3.org/2000/svg">
<circle cx="27" cy="27" r="27" fill="#FC611F"/>
<path d="M23.5 34H30.5C30.5 34 30.4994 39.2497 33 40.5C36 42 39.5 43 39.5 43L28 49.5L12 41C12 41 17 41 21 40.5C23.8607 40.1424 23.5 34 23.5 34Z" fill="#FEE6A0"/>
<path d="M16.0002 24.4999C16.2843 24.0263 16.5444 23.8118 17.0002 23.4999C19.3466 21.8945 19.0002 30.4999 19.0002 30.4999C19.0002 30.4999 18.086 29.5857 17.5002 28.9999C16.9144 28.4141 16.3707 28.2409 16.0002 27.4999C15.4762 26.452 15.3974 25.5045 16.0002 24.4999Z" fill="#FDEBB6"/>
<path d="M38.6406 24.838C38.5183 24.347 38.3676 24.1069 38.0921 23.7475C36.6739 21.8971 35.4004 30.1704 35.4004 30.1704C35.4004 30.1704 36.2258 29.4194 36.7547 28.9382C37.2836 28.457 37.7089 28.3645 38.109 27.7059C38.6749 26.7746 38.9 25.8795 38.6406 24.838Z" fill="#FDEBB6"/>
<path d="M19 18.5L26.5 19.5L34 18L37.5 25.5C37.5 25.5 35.6952 33.212 32 36C30.1166 37.421 28.8517 38.6897 26.5 38.5C24.4962 38.3384 23.5458 37.2854 22 36C18.3718 32.983 17 25 17 25L19 18.5Z" fill="#F7E3A9"/>
<path d="M19 17.5L26.5 18.5L34 17L37.5 24.5C37.5 24.5 35.6952 32.212 32 35C30.1166 36.421 28.8517 37.6897 26.5 37.5C24.4962 37.3384 23.5458 36.2854 22 35C18.3718 31.983 17 24 17 24L19 17.5Z" fill="#FEEFC4"/>
<path d="M18 13.5C19.0219 12.1669 19.9711 11.6957 21.5 11C23.3125 10.1753 26.5 10 26.5 10C26.5 10 29.6875 10.1753 31.5 11C33.0289 11.6957 33.8681 12.259 35 13.5C36.4712 15.113 37.5 18.5 37.5 18.5V24L35 40C35 40 35.3835 23 33 23C31 23 28.6381 23.2826 26.5 23H20L19 40L16.5 18.5C16.5 18.5 16.7598 15.1179 18 13.5Z" fill="#FFE350"/>
<path d="M9 42C10.9072 40.3248 12.9901 40.1209 15.5 40.4999C20.9405 41.3216 22.498 46.9999 28 46.9999C33.5021 46.9999 35.0465 41.2295 40.5 40.4999C42.629 40.2152 43.9234 40.5413 45.5 42C46.8214 43.2226 47 44.9999 47 44.9999C47 44.9999 42.0224 49.8134 38.5 51.4999C34.6982 53.3203 32.212 53.8363 28 53.9999C23.445 54.1769 20.7203 53.723 16.5 51.9999C12.3383 50.3007 7.50005 45.4999 7.50005 45.4999C7.50005 45.4999 7.46837 43.3454 9 42Z" fill="#8FD8A8"/>
<rect x="23" y="9" width="8" height="2" rx="1" fill="#8FD8A8"/>
<path d="M24 7.00007C24.6141 4.00608 31 3.50007 31 3.50007C31 3.50007 35.7388 2.52322 38.5 3.50007C41.3754 4.51733 43.1689 5.75576 44.5 8.50007C46.3077 12.2269 43 19.0001 43 19.0001C43 19.0001 39.7323 12.6047 35.4999 10.5C31.4749 8.49837 24.9999 9 24.9999 9C24.9999 9 23.843 7.76519 24 7.00007Z" fill="#FFE350"/>
</svg>
