<svg width="54" height="55" viewBox="0 0 54 55" fill="none" xmlns="http://www.w3.org/2000/svg">
<circle cx="27" cy="27" r="27" fill="#53A2CB"/>
<path d="M22 33.5L31.5 33L33 40.5L27 48.5L21 40.5L22 33.5Z" fill="#FEE6A0"/>
<path d="M16.0002 24.4999C16.2843 24.0263 16.5444 23.8118 17.0002 23.4999C19.3466 21.8945 19.0002 30.4999 19.0002 30.4999C19.0002 30.4999 18.086 29.5857 17.5002 28.9999C16.9144 28.4141 16.3707 28.2409 16.0002 27.4999C15.4762 26.452 15.3974 25.5045 16.0002 24.4999Z" fill="#FDEBB6"/>
<path d="M38.6406 24.838C38.5183 24.347 38.3676 24.1069 38.0921 23.7475C36.6739 21.8971 35.4004 30.1704 35.4004 30.1704C35.4004 30.1704 36.2258 29.4194 36.7547 28.9382C37.2836 28.457 37.7089 28.3645 38.109 27.7059C38.6749 26.7746 38.9 25.8795 38.6406 24.838Z" fill="#FDEBB6"/>
<path d="M19 18.5L26.5 19.5L34 18L37.5 25.5C37.5 25.5 35.6952 33.212 32 36C30.1166 37.421 28.8517 38.6897 26.5 38.5C24.4962 38.3384 23.5458 37.2854 22 36C18.3718 32.983 17 25 17 25L19 18.5Z" fill="#F7E2A7"/>
<path d="M18.5 16H27L37 17.5L37.5 24.5C37.5 24.5 35.6952 32.212 32 35C30.1166 36.421 28.8517 37.6897 26.5 37.5C24.4962 37.3384 23.5458 36.2854 22 35C18.3718 31.983 17 24 17 24L16.5 19.5L18.5 16Z" fill="#FEEFC4"/>
<path d="M21.4998 10.5002C23.9999 9.49999 26.476 10.0001 26.476 10.0001C26.476 10.0001 29.5579 9.28132 31.4999 10.0002C33.04 10.5703 34.195 11.8604 35.3808 12.8825C36.922 14.2108 36.9522 14.4999 37.476 16.9999C37.9999 19.5 37.476 23.5883 37.476 23.5883C37.476 23.5883 35.5798 17.7749 33.2855 17.0001C31.2096 16.299 28.716 18.4681 26.476 18.2354C24.5521 18.0355 24.3426 17.217 22.8094 17.0001C21.6014 16.8292 20.8342 16.703 19.6665 17.0001C16.8799 17.7091 17.0474 24.0001 17.0474 24.0001C17.0474 24.0001 15.4999 18.5002 15.9999 17.0001C16.4999 15.5 18.9998 11.5004 21.4998 10.5002Z" fill="#303030"/>
<path d="M9 40.5L21 38.5L27.5 42L33 38.5L46 40.5L47 45C47 45 42.0223 49.8135 38.5 51.5C34.6982 53.3203 32.212 53.8364 28 54C23.445 54.177 20.7202 53.7231 16.5 52C12.3383 50.3008 7.5 45.5 7.5 45.5L9 40.5Z" fill="white"/>
<path d="M23.5 30.0989C24.0361 29.7925 24.3825 29.5989 25 29.5989C25.6175 29.5989 26.5 30.0989 26.5 30.0989C26.5 30.0989 25.243 31.9641 24 32.0989C23.1996 32.1857 22 31.5989 22 31.5989C22 31.5989 22.7807 30.5099 23.5 30.0989Z" fill="#303030"/>
<path d="M29.1966 29.6932C28.6888 29.5233 28.3612 29.4169 27.8186 29.4994C27.2759 29.5818 26.5602 30.0937 26.5602 30.0937C26.5602 30.0937 28.0881 31.9007 29.1966 31.841C29.9104 31.8025 31.5002 31.5989 31.5002 31.5989C31.5002 31.5989 29.878 29.9211 29.1966 29.6932Z" fill="#303030"/>
<path d="M14.8869 41.5325L20.8868 38.532L18.887 40.0326L16.387 41.5326L17.387 43.5326L15.8871 43.5323L19.8869 51.532L15.8871 45.0323L14.887 43.0321L15.887 43.0326L14.8869 41.5325Z" fill="#303030"/>
<path d="M39.1682 41.1618L32.9391 38.553L35.0507 39.9227L37.664 41.2594L36.8028 43.3231L38.3069 43.2253L34.8626 51.4801L38.4132 44.7244L39.2743 42.6604L38.2715 42.7259L39.1682 41.1618Z" fill="#303030"/>
<path d="M27 41.5H28L27.5 54L27 41.5Z" fill="#4A4949"/>
<path d="M19.708 39.5416L21.0134 38.6714L27.3243 41.5841L26.4036 45.2672L21.6061 42.3887L19.708 39.5416Z" fill="#FAFAFA" stroke="#303030" stroke-width="0.3"/>
<path d="M33.7659 42.6314L34.3345 39.5699L32.9922 38.6751L27.6753 41.5753L28.6634 45.2808L33.7659 42.6314Z" fill="#FAFAFA" stroke="#303030" stroke-width="0.3"/>
</svg>
