<svg width="19" height="17" viewBox="0 0 19 17" fill="none" xmlns="http://www.w3.org/2000/svg">
<path d="M18.6382 7.16287C18.3743 7.83738 17.9737 8.44999 17.4615 8.96217V8.96317L9.49955 16.9232L1.53755 8.96217C1.02541 8.44999 0.624789 7.83738 0.360886 7.16287C0.0969828 6.48836 -0.0244956 5.76653 0.00409075 5.0428C0.0326771 4.31906 0.21071 3.60907 0.526992 2.95747C0.843274 2.30587 1.29096 1.72677 1.8419 1.25658C2.39284 0.786395 3.03512 0.435294 3.72833 0.22536C4.42154 0.015427 5.15069 -0.0487965 5.86992 0.0367289C6.58915 0.122254 7.28291 0.355678 7.90756 0.722321C8.53221 1.08896 9.07423 1.58089 9.49955 2.16717C9.92486 1.58089 10.4669 1.08896 11.0915 0.722321C11.7162 0.355678 12.4099 0.122254 13.1292 0.0367289C13.8484 -0.0487965 14.5776 0.015427 15.2708 0.22536C15.964 0.435294 16.6062 0.786395 17.1572 1.25658C17.7081 1.72677 18.1558 2.30587 18.4721 2.95747C18.7884 3.60907 18.9664 4.31906 18.995 5.0428C19.0236 5.76653 18.9021 6.48836 18.6382 7.16287Z" fill="#00CCA9"/>
</svg>
