<svg width="19" height="17" viewBox="0 0 19 17" fill="none" xmlns="http://www.w3.org/2000/svg">
<path d="M2.24403 8.25192C1.81568 7.82346 1.48389 7.30837 1.2709 6.74118C1.05792 6.174 0.968659 5.56783 1.00911 4.96332C1.04957 4.35882 1.2188 3.76995 1.50547 3.2362C1.79213 2.70245 2.1896 2.23616 2.67123 1.8686C3.15285 1.50104 3.70749 1.24069 4.29796 1.10503C4.88844 0.969365 5.50109 0.961514 6.09485 1.082C6.6886 1.20249 7.24974 1.44854 7.74062 1.80364C8.2315 2.15874 8.64079 2.6147 8.94103 3.14092H10.059C10.3593 2.6147 10.7686 2.15874 11.2595 1.80364C11.7503 1.44854 12.3115 1.20249 12.9052 1.082C13.499 0.961514 14.1116 0.969365 14.7021 1.10503C15.2926 1.24069 15.8472 1.50104 16.3288 1.8686C16.8105 2.23616 17.2079 2.70245 17.4946 3.2362C17.7813 3.76995 17.9505 4.35882 17.991 4.96332C18.0314 5.56783 17.9422 6.174 17.7292 6.74118C17.5162 7.30837 17.1844 7.82346 16.756 8.25192L9.50003 15.5099L2.24403 8.25292V8.25192ZM17.462 8.96192C17.9742 8.44975 18.3748 7.83714 18.6387 7.16262C18.9026 6.48811 19.0241 5.76629 18.9955 5.04255C18.9669 4.31882 18.7889 3.60882 18.4726 2.95723C18.1563 2.30563 17.7086 1.72653 17.1577 1.25634C16.6067 0.786151 15.9645 0.43505 15.2713 0.225116C14.578 0.0151828 13.8489 -0.0490406 13.1297 0.0364848C12.4104 0.12201 11.7167 0.355434 11.092 0.722076C10.4674 1.08872 9.92535 1.58065 9.50003 2.16692C9.07472 1.58065 8.5327 1.08872 7.90805 0.722076C7.2834 0.355434 6.58964 0.12201 5.87041 0.0364848C5.15117 -0.0490406 4.42202 0.0151828 3.72881 0.225116C3.0356 0.43505 2.39333 0.786151 1.84239 1.25634C1.29145 1.72653 0.843762 2.30563 0.52748 2.95723C0.211198 3.60882 0.0331654 4.31882 0.00457904 5.04255C-0.0240073 5.76629 0.0974711 6.48811 0.361374 7.16262C0.625278 7.83714 1.0259 8.44975 1.53803 8.96192L9.50003 16.9229L17.462 8.96292V8.96192Z" fill="#979797"/>
</svg>
