<svg width="17" height="18" viewBox="0 0 17 18" fill="none" xmlns="http://www.w3.org/2000/svg">
<path d="M14.5808 0.944336H2.41923C1.04615 0.944336 0 1.971 0 3.31851V15.2535C0 16.601 1.04615 17.6277 2.41923 17.6277H14.5808C15.9538 17.6277 17 16.601 17 15.2535V3.31851C17 1.971 15.9538 0.944336 14.5808 0.944336ZM8.5 14.291C11.3115 14.291 13.6 12.1093 13.6 9.47851C13.6 9.02934 13.5346 8.51601 13.4038 8.13101H14.8423V14.9327C14.8423 15.2535 14.5808 15.5743 14.1885 15.5743H2.81154C2.48462 15.5743 2.15769 15.3177 2.15769 14.9327V8.06684H3.66154C3.53077 8.51601 3.46539 8.96518 3.46539 9.41434C3.4 12.1093 5.68846 14.291 8.5 14.291ZM8.5 12.366C6.66923 12.366 5.23077 10.9543 5.23077 9.22184C5.23077 7.48934 6.66923 6.07767 8.5 6.07767C10.3308 6.07767 11.7692 7.48934 11.7692 9.22184C11.7692 11.0185 10.3308 12.366 8.5 12.366ZM14.7769 5.50017C14.7769 5.88517 14.45 6.20601 14.0577 6.20601H12.2269C11.8346 6.20601 11.5077 5.88517 11.5077 5.50017V3.76767C11.5077 3.38267 11.8346 3.06184 12.2269 3.06184H14.0577C14.45 3.06184 14.7769 3.38267 14.7769 3.76767V5.50017Z" fill="#00CCA9"/>
</svg>
