<svg width="15" height="22" viewBox="0 0 15 22" fill="none" xmlns="http://www.w3.org/2000/svg">
<path d="M14.1039 13.5359C14.6286 13.021 14.7035 12.2853 14.2538 11.5497C13.879 10.9611 13.2043 10.6669 12.4547 10.814C12.1549 10.8876 11.855 11.0347 11.5552 11.2554C9.23139 12.8003 6.08303 12.7267 3.75924 11.1818C3.60931 11.1083 3.45939 11.0347 3.30947 10.9611C2.48489 10.5933 1.66033 10.7405 1.21057 11.4761C0.68584 12.2118 0.760792 13.021 1.43544 13.683C1.58536 13.8302 1.73528 13.9037 1.81025 14.0509L1.88521 14.1244C2.93467 14.9336 4.209 15.4486 5.85815 15.6693L4.88365 16.6256C4.05908 17.4348 3.15955 18.3176 2.33498 19.1268C2.1101 19.3475 1.81025 19.7153 1.81025 20.2303C1.81025 20.8924 2.18506 21.5545 2.85971 21.8487C3.08459 21.9959 3.30947 21.9958 3.53435 21.9958C3.90916 21.9958 4.35892 21.8487 4.65877 21.4809C5.78318 20.3774 6.68272 19.4947 7.58225 18.6119C7.65721 18.5383 7.65721 18.5383 7.65721 18.5383C7.65721 18.5383 7.73217 18.5383 7.73217 18.6119C8.33186 19.274 9.00651 19.8625 9.6062 20.5246C9.90604 20.8188 10.2059 21.1131 10.5057 21.4073C10.8805 21.7752 11.1804 21.9223 11.6301 21.9223C12.3048 21.9959 13.0544 21.5545 13.3542 20.8924C13.6541 20.3039 13.5042 19.5682 12.9794 19.1268C12.2298 18.3912 11.4802 17.582 10.6556 16.8463L9.38131 15.5957C10.056 15.5222 10.8056 15.375 11.4802 15.0808C12.6046 14.7129 13.4292 14.198 14.1039 13.5359Z" fill="#00CCA9"/>
<path d="M7.65721 11.4761C10.8805 11.4761 13.5042 8.97489 13.5042 5.81161C13.5042 4.26675 12.9045 2.79546 11.7801 1.69199C10.6556 0.58852 9.23139 0 7.73217 0C4.50885 0 1.96017 2.57476 1.88521 5.66448C1.88521 7.20934 2.4849 8.60707 3.60932 9.71054C4.65877 10.8876 6.08302 11.4761 7.65721 11.4761ZM6.00807 4.11963C6.45783 3.67824 7.05752 3.45754 7.65721 3.45754C9.0065 3.45754 9.981 4.48745 9.981 5.73805C9.981 7.06221 8.93154 8.01855 7.65721 8.01855C6.30791 8.01855 5.33342 6.98865 5.33342 5.73805C5.33342 5.14953 5.5583 4.56102 6.00807 4.11963Z" fill="#00CCA9"/>
<path d="M14.1039 13.5359C14.6286 13.021 14.7035 12.2853 14.2538 11.5497C13.879 10.9611 13.2043 10.6669 12.4547 10.814C12.1549 10.8876 11.855 11.0347 11.5552 11.2554C9.23139 12.8003 6.08303 12.7267 3.75924 11.1818C3.60931 11.1083 3.45939 11.0347 3.30947 10.9611C2.48489 10.5933 1.66033 10.7405 1.21057 11.4761C0.68584 12.2118 0.760792 13.021 1.43544 13.683C1.58536 13.8302 1.73528 13.9037 1.81025 14.0509L1.88521 14.1244C2.93467 14.9336 4.209 15.4486 5.85815 15.6693L4.88365 16.6256C4.05908 17.4348 3.15955 18.3176 2.33498 19.1268C2.1101 19.3475 1.81025 19.7153 1.81025 20.2303C1.81025 20.8924 2.18506 21.5545 2.85971 21.8487C3.08459 21.9959 3.30947 21.9958 3.53435 21.9958C3.90916 21.9958 4.35892 21.8487 4.65877 21.4809C5.78318 20.3774 6.68272 19.4947 7.58225 18.6119C7.65721 18.5383 7.65721 18.5383 7.65721 18.5383C7.65721 18.5383 7.73217 18.5383 7.73217 18.6119C8.33186 19.274 9.00651 19.8625 9.6062 20.5246C9.90604 20.8188 10.2059 21.1131 10.5057 21.4073C10.8805 21.7752 11.1804 21.9223 11.6301 21.9223C12.3048 21.9959 13.0544 21.5545 13.3542 20.8924C13.6541 20.3039 13.5042 19.5682 12.9794 19.1268C12.2298 18.3912 11.4802 17.582 10.6556 16.8463L9.38131 15.5957C10.056 15.5222 10.8056 15.375 11.4802 15.0808C12.6046 14.7129 13.4292 14.198 14.1039 13.5359Z" fill="#00CCA9"/>
</svg>
