<svg width="21" height="13" viewBox="0 0 21 13" fill="none" xmlns="http://www.w3.org/2000/svg">
<path d="M20.6727 11.5804C20.6727 11.4989 20.5897 11.4989 20.5897 11.4174C20.2576 10.7656 19.5104 9.95089 18.5141 9.05467C18.016 8.6473 17.7669 8.3214 17.6009 8.15845C17.3518 7.83255 17.3518 7.58813 17.4348 7.26224C17.5178 7.01781 17.8499 6.61043 18.4311 5.87716C18.7632 5.46979 18.9292 5.22537 19.1783 4.98095C20.4236 3.35146 21.0048 2.29228 20.8387 1.80344L20.7557 1.72197C20.6727 1.6405 20.5897 1.55902 20.4236 1.55902C20.2576 1.47755 20.0085 1.47755 19.7595 1.55902H16.6046C16.5216 1.55902 16.5216 1.55902 16.3555 1.55902C16.2725 1.55902 16.1895 1.55902 16.1895 1.55902H16.1065H16.0234L15.9404 1.64049C15.8574 1.72197 15.8574 1.72196 15.8574 1.80344C15.5253 2.69966 15.1102 3.43293 14.6951 4.24767C14.446 4.65504 14.1969 5.06242 13.9479 5.38832C13.6988 5.71422 13.5327 5.95864 13.3667 6.12159C13.2006 6.28454 13.0346 6.36601 12.9516 6.52896C12.8685 6.61043 12.7025 6.69191 12.7025 6.61044C12.6195 6.61044 12.5365 6.61043 12.5365 6.52896C12.4534 6.44748 12.3704 6.36601 12.2874 6.28453C12.2044 6.20306 12.2044 6.04011 12.1213 5.87716C12.1213 5.71421 12.1213 5.55126 12.1213 5.46979C12.1213 5.38831 12.1213 5.1439 12.1213 4.98095C12.1213 4.73653 12.1213 4.57357 12.1213 4.4921C12.1213 4.24767 12.1213 3.92178 12.1213 3.59589C12.1213 3.26999 12.1213 3.02556 12.1213 2.86261C12.1213 2.69966 12.1213 2.45524 12.1213 2.29229C12.1213 2.04787 12.1213 1.88491 12.1213 1.80344C12.1213 1.72196 12.0383 1.55902 12.0383 1.47755C11.9553 1.39607 11.8723 1.31459 11.7892 1.23312C11.7062 1.15164 11.5402 1.15165 11.4572 1.07017C11.042 0.988699 10.5439 0.907227 9.96276 0.907227C8.63439 0.907227 7.72114 0.988704 7.38905 1.15165C7.223 1.23313 7.05695 1.3146 6.97393 1.47755C6.80789 1.64049 6.80788 1.72197 6.8909 1.72197C7.30602 1.80345 7.63811 1.96639 7.80416 2.21081L7.88719 2.37377C7.97021 2.45524 7.9702 2.61819 8.05322 2.86261C8.13624 3.10703 8.13625 3.35146 8.13625 3.67735C8.13625 4.1662 8.13625 4.65505 8.13625 4.98095C8.13625 5.38832 8.05322 5.63274 8.05322 5.87716C8.05322 6.12158 7.97021 6.28454 7.88719 6.36601C7.80417 6.52896 7.80416 6.61044 7.72113 6.61044C7.72113 6.61044 7.72113 6.69191 7.6381 6.69191C7.55508 6.69191 7.47206 6.77339 7.30602 6.77339C7.223 6.77339 7.05695 6.69191 6.97393 6.61044C6.80789 6.52896 6.64184 6.36602 6.55882 6.20307C6.39277 6.04012 6.22672 5.79569 6.06067 5.46979C5.89463 5.14389 5.64555 4.818 5.4795 4.32915L5.31347 4.00326C5.23045 3.84031 5.0644 3.51441 4.89836 3.10703C4.73231 2.69966 4.56626 2.37377 4.40022 1.9664C4.31719 1.80345 4.23418 1.72197 4.15116 1.64049H4.06813C4.06813 1.64049 3.9851 1.55902 3.90207 1.55902C3.81905 1.55902 3.73604 1.47755 3.65302 1.47755H0.664186C0.332094 1.47755 0.166051 1.55902 0.083028 1.64049L0 1.72197C0 1.72197 0 1.80344 0 1.88492C0 1.96639 5.06608e-06 2.04786 0.083028 2.21081C0.498142 3.1885 0.996277 4.1662 1.49441 5.1439C1.99255 6.04011 2.49069 6.85486 2.82279 7.42518C3.2379 7.9955 3.56999 8.56583 3.9851 9.05467C4.40022 9.54352 4.64928 9.86941 4.7323 10.0324C4.89835 10.1953 4.98137 10.2768 5.06439 10.3583L5.31347 10.6027C5.47952 10.7656 5.72858 11.0101 6.06067 11.2545C6.39277 11.4989 6.80788 11.7433 7.22299 11.9877C7.6381 12.2322 8.13625 12.3951 8.63439 12.5581C9.21555 12.721 9.71368 12.8025 10.2118 12.721H11.4572C11.7062 12.721 11.8723 12.6395 12.0383 12.4766L12.1213 12.3951C12.1213 12.3136 12.2044 12.3136 12.2044 12.2322C12.2044 12.1507 12.2044 12.0692 12.2044 11.9063C12.2044 11.5804 12.2044 11.336 12.2874 11.0915C12.3704 10.8471 12.3704 10.6842 12.4534 10.5212C12.5365 10.3583 12.6195 10.2768 12.7025 10.1953C12.7855 10.1138 12.8686 10.0324 12.8686 10.0324H12.9516C13.1176 9.95089 13.3667 10.0324 13.5327 10.1953C13.7818 10.3583 14.0309 10.6027 14.1969 10.8471C14.363 11.0915 14.612 11.336 14.9441 11.6619C15.2762 11.9878 15.5253 12.2322 15.6913 12.3137L15.9404 12.4766C16.1064 12.5581 16.2725 12.6395 16.5216 12.721C16.7706 12.8025 16.9367 12.8025 17.1027 12.8025L19.9255 12.721C20.1746 12.721 20.4236 12.6396 20.5897 12.5581C20.7557 12.4766 20.8387 12.3951 20.8387 12.2322C20.8387 12.1507 20.8387 11.9878 20.8387 11.9063C20.6727 11.7433 20.6727 11.6618 20.6727 11.5804Z" fill="#00CCA9"/>
</svg>
